<?xml version="1.0" encoding="UTF-8"?>
<svg width="44px" height="47px" viewBox="0 0 44 47" version="1.1" xmlns="http://www.w3.org/2000/svg" xmlns:xlink="http://www.w3.org/1999/xlink">
    <!-- Generator: sketchtool 52.5 (67469) - http://www.bohemiancoding.com/sketch -->
    <title>F7685234-8C6B-47DA-869A-3067AF2028E7</title>
    <desc>Created with sketchtool.</desc>
    <g id="Design" stroke="none" stroke-width="1" fill="none" fill-rule="evenodd">
        <g id="List-page" transform="translate(-570.000000, -67.000000)" fill="#FFFFFF" fill-rule="nonzero">
            <g id="Icons-/-Star-Copy" transform="translate(590.838537, 88.838537) rotate(20.000000) translate(-590.838537, -88.838537) translate(568.338537, 66.338537)">
                <path d="M14.3794785,12.7442527 L19.6056594,1.81905681 C20.0641834,0.84053343 21.0173627,0.153508451 22.1045826,0.020716208 C22.1864172,0.0109169657 22.2674982,0.00482168746 22.3364239,0.00306011072 C22.398286,0.000783913756 22.398286,0.000783913756 22.4661911,0 L22.4661911,0.821539478 L22.4661911,0 C22.5186124,0 22.5710216,0.00157731095 22.6065028,0.00388092375 C22.700051,0.00765283315 22.7938402,0.016657332 22.8879092,0.0307092682 C23.395593,0.106941457 23.845612,0.264681016 24.2209051,0.505744501 C24.7099628,0.81798268 25.100727,1.25901469 25.3649666,1.79733486 L30.6174605,12.7323425 L42.2809046,14.4652732 C43.4787663,14.6396108 44.4849865,15.4890089 44.8494436,16.6250622 C45.215516,17.7500275 44.9201843,18.9749304 44.0859763,19.8005432 L35.575048,28.3604014 L37.6035356,40.466826 C37.7934384,41.6230957 37.3276104,42.7782556 36.3909851,43.479775 C35.9555374,43.8126453 35.4360625,44.0279001 34.8918929,44.1032551 C34.8386697,44.1109913 34.7855187,44.11667 34.7276788,44.1211666 C34.6424541,44.1276193 34.5598154,44.1304032 34.4734892,44.1304032 C33.9247106,44.1304032 33.3879095,43.994882 32.9252587,43.7395114 L22.5188511,38.1190376 L12.1235862,43.7581618 C12.1024367,43.769691 12.1024367,43.769691 12.0948092,43.7736831 L12.0880657,43.7772757 C11.7359571,43.9629201 11.3584663,44.0812544 10.9737104,44.1269217 C10.8456129,44.1430346 10.7145791,44.1510193 10.5825858,44.1510193 C10.3989564,44.1510193 10.2160004,44.1316199 10.0870808,44.1025185 C9.56690397,44.0237786 9.08069286,43.8224153 8.66228424,43.5100798 C7.72106863,42.8021825 7.2544363,41.6455394 7.4427488,40.4874486 L9.44754773,28.381152 L0.944313943,19.8603483 C0.0995732857,19.033555 -0.207471456,17.8159405 0.141600103,16.7009938 C0.4922293,15.5538965 1.48998604,14.6966869 2.71058727,14.5011681 L14.3794785,12.7442527 Z M22.4661911,0.821539478 L22.4661911,1.64307896 C22.4448467,1.64335773 22.4448467,1.64335773 22.3944135,1.64510992 C22.3670084,1.64584513 22.3382446,1.64800746 22.3094667,1.65145105 C21.800585,1.71360662 21.3440713,2.04264893 21.1244523,2.51127066 L15.5161084,14.2354306 L15.0748035,14.3018752 L2.9725436,16.1240021 C2.39118759,16.2171433 1.91203127,16.6288042 1.74407719,17.1782094 C1.5753229,17.7172464 1.72258703,18.301236 2.13398419,18.7039729 L11.2362838,27.8249963 L11.1684159,28.2348274 L9.0961309,40.7486282 C9.00484105,41.3100561 9.22919144,41.8661542 9.67871529,42.2042522 C9.87155412,42.3482002 10.096744,42.4414621 10.3928155,42.4878356 C10.4554022,42.5011991 10.518979,42.5079403 10.5825858,42.5079403 C10.6443146,42.5079403 10.7042619,42.5042874 10.766623,42.4964639 C10.948714,42.4748415 11.1257862,42.4193336 11.2872058,42.3342844 C11.2959557,42.3295822 11.2959557,42.3295822 11.301181,42.3268223 L22.517076,36.2424969 L22.921766,36.4610689 L33.7395747,42.3037789 C33.9560516,42.4232496 34.2098519,42.4873242 34.4734892,42.4873242 C34.5188709,42.4873242 34.5590339,42.4859712 34.5970857,42.483092 C34.6175232,42.4815025 34.6336472,42.4797798 34.6521304,42.4771126 C34.912808,42.4410054 35.157949,42.3394263 35.3682404,42.1787232 C35.8194997,41.8407121 36.0421996,41.2884612 35.9506131,40.7307888 L33.7852505,27.8074926 L34.0807719,27.5102722 L42.8919305,18.6484955 C43.2898285,18.2546794 43.4311041,17.6687314 43.2530667,17.1215876 C43.0793335,16.5800528 42.5962041,16.1722203 42.0326659,16.0901988 L29.4834261,14.2256623 L29.2930043,13.8292289 L23.8531367,2.50406455 C23.723374,2.23973973 23.5370891,2.02949124 23.305567,1.88167251 C23.1407297,1.7757936 22.9165769,1.69722409 22.6352024,1.65497355 C22.6017199,1.64997205 22.569071,1.6468375 22.5208466,1.64472532 C22.5026,1.64362702 22.4843895,1.64307896 22.4661911,1.64307896 L22.4661911,0.821539478 Z" id="Path"></path>
            </g>
        </g>
    </g>
</svg>